# xmcd
#
# Track frame offsets:
#	150
#	13702
#	23196
#	36779
#	49160
#	62691
#	79959
#	90815
#	104196
#	118503
#	129850
#	148612
#	164908
#	181107
#
# Disc length: 2620 seconds
#
# Revision: 0
# Processed by: cddbd v1.5.1PL2 Copyright (c) Steve Scherf et al.
# Submitted via: dBpowerAMP V4.0
#
DISCID=b80a3a0e
DTITLE=Jeremy Wakefield - Steel Guitar Caviar
DYEAR=2005
DGENRE=Country
TTITLE0=Delaware Drive
TTITLE1=Sugar Foot Stomp
TTITLE2=Dark Circles
TTITLE3=The Red Garter
TTITLE4=Taking Off
TTITLE5=Hawaii Creeper
TTITLE6=Tiny's Tempo
TTITLE7=Mudslide
TTITLE8=High's Blues
TTITLE9=Mugsy's Flop
TTITLE10=Penthouse Serenade
TTITLE11=I Wish I Were Twins
TTITLE12=Blue and Drifting
TTITLE13=Steel Guitar Jive
EXTD=
EXTT0=
EXTT1=
EXTT2=
EXTT3=
EXTT4=
EXTT5=
EXTT6=
EXTT7=
EXTT8=
EXTT9=
EXTT10=
EXTT11=
EXTT12=
EXTT13=
PLAYORDER=
